<?xml version="1.0" encoding="UTF-8"?>
<svg xmlns="http://www.w3.org/2000/svg" xmlns:xlink="http://www.w3.org/1999/xlink" viewBox="0 0 48 48" width="48px" height="48px">
<g id="surface149638304">
<path style=" stroke:none;fill-rule:nonzero;fill:rgb(38.039216%,50.588238%,71.372551%);fill-opacity:1;" d="M 24 11.519531 C 11.082031 11.519531 0.960938 17.003906 0.960938 24 C 0.960938 30.996094 11.082031 36.480469 24 36.480469 C 36.917969 36.480469 47.039062 30.996094 47.039062 24 C 47.039062 17.003906 36.917969 11.519531 24 11.519531 Z M 21.609375 15.359375 L 24.125 15.359375 L 23.324219 19.199219 L 25.570312 19.199219 C 26.996094 19.199219 27.953125 19.398438 28.496094 19.898438 C 29.027344 20.390625 29.191406 21.195312 28.976562 22.292969 L 27.980469 26.878906 L 25.421875 26.878906 L 26.339844 22.640625 C 26.453125 22.058594 26.40625 21.652344 26.210938 21.4375 C 26.015625 21.226562 25.589844 21.121094 24.949219 21.121094 L 22.933594 21.121094 L 21.71875 26.878906 L 19.199219 26.878906 Z M 10.558594 19.199219 L 15.679688 19.199219 C 18.121094 19.199219 19.597656 20.835938 19.019531 23.277344 C 18.347656 26.109375 16.546875 26.878906 13.242188 26.878906 L 11.660156 26.878906 L 11.15625 29.761719 L 8.613281 29.761719 Z M 30.71875 19.199219 L 35.839844 19.199219 C 38.28125 19.199219 39.757812 20.835938 39.179688 23.277344 C 38.507812 26.109375 36.707031 26.878906 33.402344 26.878906 L 31.820312 26.878906 L 31.316406 29.761719 L 28.773438 29.761719 Z M 12.738281 21.121094 L 12.015625 24.960938 L 13.65625 24.960938 C 15.078125 24.960938 16.398438 24.796875 16.621094 22.679688 C 16.703125 21.859375 16.359375 21.121094 14.71875 21.121094 Z M 32.898438 21.121094 L 32.175781 24.960938 L 33.816406 24.960938 C 35.238281 24.960938 36.558594 24.796875 36.78125 22.679688 C 36.863281 21.859375 36.519531 21.121094 34.878906 21.121094 Z M 32.898438 21.121094 "/>
</g>
</svg>
